<svg width="1200" height="720" viewBox="0 0 1200 720" fill="none" xmlns="http://www.w3.org/2000/svg">
  <rect width="1200" height="720" rx="36" fill="#251207"/>
  <rect x="40" y="40" width="1120" height="640" rx="28" fill="url(#paint0_linear)"/>
  <rect x="96" y="96" width="1008" height="180" rx="24" fill="#382010"/>
  <rect x="96" y="316" width="306" height="308" rx="24" fill="#4A2A15"/>
  <rect x="434" y="316" width="306" height="308" rx="24" fill="#5F371C"/>
  <rect x="772" y="316" width="332" height="308" rx="24" fill="#764625"/>
  <rect x="136" y="136" width="226" height="22" rx="11" fill="#F59E0B"/>
  <rect x="136" y="178" width="560" height="14" rx="7" fill="#FFE6BE" fill-opacity="0.4"/>
  <rect x="132" y="360" width="154" height="20" rx="10" fill="#F59E0B"/>
  <rect x="132" y="402" width="190" height="14" rx="7" fill="#FFE6BE" fill-opacity="0.4"/>
  <rect x="470" y="360" width="156" height="20" rx="10" fill="#FB7185"/>
  <rect x="470" y="402" width="194" height="14" rx="7" fill="#FFE6BE" fill-opacity="0.4"/>
  <rect x="808" y="360" width="184" height="20" rx="10" fill="#16B8FF"/>
  <rect x="808" y="402" width="210" height="14" rx="7" fill="#FFE6BE" fill-opacity="0.4"/>
  <defs>
    <linearGradient id="paint0_linear" x1="40" y1="40" x2="1084.63" y2="741.037" gradientUnits="userSpaceOnUse">
      <stop stop-color="#361908"/>
      <stop offset="1" stop-color="#9A561F"/>
    </linearGradient>
  </defs>
</svg>
