<svg width="1200" height="720" viewBox="0 0 1200 720" fill="none" xmlns="http://www.w3.org/2000/svg">
  <rect width="1200" height="720" rx="36" fill="#130A22"/>
  <rect x="40" y="40" width="1120" height="640" rx="28" fill="url(#paint0_linear)"/>
  <rect x="92" y="96" width="1016" height="112" rx="24" fill="#24153D"/>
  <rect x="92" y="248" width="492" height="376" rx="24" fill="#2A1A49"/>
  <rect x="616" y="248" width="492" height="176" rx="24" fill="#342058"/>
  <rect x="616" y="448" width="492" height="176" rx="24" fill="#43286D"/>
  <rect x="134" y="134" width="220" height="22" rx="11" fill="#A855F7"/>
  <rect x="134" y="174" width="420" height="14" rx="7" fill="#E4D7FF" fill-opacity="0.45"/>
  <circle cx="226" cy="436" r="96" fill="#4C2A82"/>
  <circle cx="226" cy="408" r="58" fill="#E6D5FF"/>
  <path d="M124 546C124 486.353 172.353 438 232 438H235C294.647 438 343 486.353 343 546V560H124V546Z" fill="#E6D5FF"/>
  <rect x="652" y="292" width="146" height="20" rx="10" fill="#A855F7"/>
  <rect x="652" y="332" width="388" height="14" rx="7" fill="#E4D7FF" fill-opacity="0.42"/>
  <rect x="652" y="492" width="166" height="20" rx="10" fill="#16B8FF"/>
  <rect x="652" y="532" width="370" height="14" rx="7" fill="#E4D7FF" fill-opacity="0.42"/>
  <defs>
    <linearGradient id="paint0_linear" x1="40" y1="40" x2="1092.5" y2="731.548" gradientUnits="userSpaceOnUse">
      <stop stop-color="#211036"/>
      <stop offset="1" stop-color="#4B2785"/>
    </linearGradient>
  </defs>
</svg>
