<svg width="1200" height="720" viewBox="0 0 1200 720" fill="none" xmlns="http://www.w3.org/2000/svg">
  <rect width="1200" height="720" rx="36" fill="#08152B"/>
  <rect x="40" y="40" width="1120" height="640" rx="28" fill="url(#paint0_linear)"/>
  <rect x="96" y="96" width="244" height="528" rx="24" fill="#0A1831"/>
  <rect x="388" y="96" width="716" height="164" rx="24" fill="#102546"/>
  <rect x="388" y="292" width="338" height="332" rx="24" fill="#112D55"/>
  <rect x="766" y="292" width="338" height="332" rx="24" fill="#173A6B"/>
  <rect x="128" y="146" width="180" height="20" rx="10" fill="#16B8FF"/>
  <rect x="128" y="186" width="140" height="14" rx="7" fill="#D0E7FF" fill-opacity="0.7"/>
  <rect x="128" y="254" width="180" height="180" rx="24" fill="#143A68"/>
  <rect x="128" y="462" width="180" height="18" rx="9" fill="#D0E7FF" fill-opacity="0.55"/>
  <rect x="128" y="494" width="132" height="14" rx="7" fill="#D0E7FF" fill-opacity="0.35"/>
  <rect x="428" y="136" width="180" height="20" rx="10" fill="#D0E7FF" fill-opacity="0.8"/>
  <rect x="428" y="182" width="620" height="16" rx="8" fill="#D0E7FF" fill-opacity="0.34"/>
  <rect x="428" y="332" width="120" height="18" rx="9" fill="#16B8FF"/>
  <rect x="428" y="374" width="240" height="14" rx="7" fill="#D0E7FF" fill-opacity="0.4"/>
  <rect x="806" y="332" width="146" height="18" rx="9" fill="#8B5CF6"/>
  <rect x="806" y="374" width="210" height="14" rx="7" fill="#D0E7FF" fill-opacity="0.4"/>
  <defs>
    <linearGradient id="paint0_linear" x1="40" y1="40" x2="1030.71" y2="785.149" gradientUnits="userSpaceOnUse">
      <stop stop-color="#0C1E3C"/>
      <stop offset="1" stop-color="#184A7E"/>
    </linearGradient>
  </defs>
</svg>
